<?xml version="1.0" encoding="UTF-8"?>
<svg width="164px" height="59px" viewBox="0 0 164 59" version="1.1" xmlns="http://www.w3.org/2000/svg" xmlns:xlink="http://www.w3.org/1999/xlink">
    <!-- Generator: Sketch 52.5 (67469) - http://www.bohemiancoding.com/sketch -->
    <title>Group 5@2x</title>
    <desc>Created with Sketch.</desc>
    <defs>
        <path d="M4.19979487,155.688 L38.3295726,155.688 L38.3295726,3.912 L4.19979487,3.912 L4.19979487,155.688 Z M0.321230769,159.6 L0.321230769,0 L42.2081368,0 L42.2081368,159.6 L0.321230769,159.6 Z" id="path-1"></path>
        <path d="M15.7482393,5.192 L0.553230769,5.192 L0.553230769,1.27 L19.1350427,1.27 L19.1350427,13.532 L15.7482393,13.532 L15.7482393,5.192 Z M12.2979829,23.676 L0.553230769,30.196 L0.553230769,25.948 L8.33217094,21.832 L8.33217094,21.598 L0.553230769,17.468 L0.553230769,13.22 L12.2979829,19.754 L19.1350427,19.754 L19.1350427,23.676 L12.2979829,23.676 Z M15.8136752,37.326 L11.2926496,37.326 L11.2926496,45.34 L8.21716239,45.34 L8.21716239,37.326 L3.8765812,37.326 L3.8765812,45.82 L0.553230769,45.82 L0.553230769,33.404 L19.1350427,33.404 L19.1350427,45.82 L15.8136752,45.82 L15.8136752,37.326 Z" id="path-3"></path>
        <path d="M6.34331624,12.614 L18.6393162,16.16 L18.6393162,19.834 L0.0575042735,24.808 L0.0575042735,20.758 L13.1545983,17.86 L13.1545983,17.652 L0.0575042735,14.172 L0.0575042735,10.86 L13.1545983,7.444 L13.1545983,7.236 L0.0575042735,4.314 L0.0575042735,0.236 L18.6393162,5.196 L18.6393162,8.898 L6.34331624,12.406 L6.34331624,12.614 Z M0.0575042735,44.5 L0.0575042735,40.576 L7.55288889,40.576 L7.55288889,32.136 L0.0575042735,32.136 L0.0575042735,28.212 L18.6393162,28.212 L18.6393162,32.136 L10.8742564,32.136 L10.8742564,40.576 L18.6393162,40.576 L18.6393162,44.5 L0.0575042735,44.5 Z M0.0575042735,52.968 L0.0575042735,49.046 L18.6393162,49.046 L18.6393162,52.968 L0.0575042735,52.968 Z M3.3808547,65.982 L3.3808547,71.606 L0.0575042735,71.606 L0.0575042735,56.436 L3.3808547,56.436 L3.3808547,62.06 L18.6393162,62.06 L18.6393162,65.982 L3.3808547,65.982 Z M15.3179487,78.996 L10.7969231,78.996 L10.7969231,87.01 L7.7214359,87.01 L7.7214359,78.996 L3.3808547,78.996 L3.3808547,87.49 L0.0575042735,87.49 L0.0575042735,75.074 L18.6393162,75.074 L18.6393162,87.49 L15.3179487,87.49 L15.3179487,78.996 Z" id="path-5"></path>
    </defs>
    <g id="Page-1" stroke="none" stroke-width="1" fill="none" fill-rule="evenodd">
        <g id="Artboard" transform="translate(-47.000000, -46.000000)">
            <g id="Group-5" transform="translate(129.000000, 75.500000) scale(1, -1) rotate(-90.000000) translate(-129.000000, -75.500000) translate(100.000000, -6.000000)">
                <g id="Group-3" transform="translate(0.000000, 139.000000)">
                    <polygon id="Fill-1" fill="#FFF54F" points="0.174495726 23.8 23.4438974 23.8 23.4438974 0.33 0.174495726 0.33"></polygon>
                    <text id="NO-TM" transform="translate(11.000000, 12.500000) scale(1, -1) rotate(-90.000000) translate(-11.000000, -12.500000) " font-family="SFProDisplay-Heavy, SF Pro Display" font-size="5" font-weight="600" letter-spacing="0.1714286" fill="#000000">
                        <tspan x="2.5" y="14.5">NO TM</tspan>
                    </text>
                </g>
                <g id="Group-6" transform="translate(15.367521, -0.000000)">
                    <mask id="mask-2" fill="white">
                        <use xlink:href="#path-1"></use>
                    </mask>
                    <g id="Clip-5"></g>
                    <polygon id="Fill-4" fill="#000000" mask="url(#mask-2)" points="0.178461538 165.92 43.9185093 165.92 43.9185093 -0.08 0.178461538 -0.08"></polygon>
                </g>
                <g id="Group-9" transform="translate(26.769231, 102.000000)">
                    <mask id="mask-4" fill="white">
                        <use xlink:href="#path-3"></use>
                    </mask>
                    <g id="Clip-8"></g>
                    <polygon id="Fill-7" fill="#0B0B09" mask="url(#mask-4)" points="0.436239316 46 19.234188 46 19.234188 1.12 0.436239316 1.12"></polygon>
                </g>
                <g id="Group-12" transform="translate(27.264957, 11.500000)">
                    <mask id="mask-6" fill="white">
                        <use xlink:href="#path-5"></use>
                    </mask>
                    <g id="Clip-11"></g>
                    <polygon id="Fill-10" fill="#0B0B09" mask="url(#mask-6)" points="-0.0594871795 87.54 18.7384615 87.54 18.7384615 0.18 -0.0594871795 0.18"></polygon>
                </g>
            </g>
        </g>
    </g>
</svg>