<?xml version="1.0" encoding="UTF-8"?>
<svg width="754px" height="647px" viewBox="0 0 754 647" version="1.1" xmlns="http://www.w3.org/2000/svg" xmlns:xlink="http://www.w3.org/1999/xlink">
    <!-- Generator: Sketch 52.5 (67469) - http://www.bohemiancoding.com/sketch -->
    <title>Path 4</title>
    <desc>Created with Sketch.</desc>
    <g id="Page-1" stroke="none" stroke-width="1" fill="none" fill-rule="evenodd" stroke-dasharray="15,4" stroke-linecap="round">
        <g id="Desktop-HD" transform="translate(-686.000000, -231.000000)" fill-rule="nonzero" stroke="#000000" stroke-width="1.5">
            <path d="M1440,877 C1397.52593,820.699098 1350.52593,786.832085 1299,775.398963 C1221.71111,758.249279 1187.13766,800.044232 1125,803.5 C1062.86234,806.955768 1046.38438,790.814251 1020,763.395769 C993.615619,735.977286 999.590014,696.418271 984,666.944102 C968.409986,637.469933 954,643.363827 942,615.930527 C930,588.497226 928.777243,545.055267 915,510.902577 C901.222757,476.749888 873,459.554634 873,444.885009 C873,430.215384 890.037316,427.271702 915,435.881815 C939.962684,444.491928 952.289844,462.506397 959,473.892995 C965.710156,485.279593 972,513.903376 978,504.90098 C982,498.899383 1014,442.884477 1074,336.856262 C1112,274.839758 1137,248.974876 1149,259.261613 C1167,274.691719 1143,345.858657 1125,364.289562 C1107,382.720467 1065.89166,372.137324 1065,345 C1064.10834,317.862676 1066.875,236.42771 1096.875,232 C1126.875,227.57229 1142.7452,342.857859 1119,394.297548 C1095.2548,445.737236 1137,411.450112 1137,444.885009 C1137,478.319907 1120.5,561.916153 1149,570.918548 C1177.5,579.920944 1187.29083,545.88933 1191,531.908167 C1194.70917,517.927005 1167,480.894592 1149,495.898585 C1131,510.902577 1143,420.878621 1185,432.881815 C1213,440.883945 1218,467.891132 1200,513.903376 C1170,563.916685 1162,595.066974 1176,607.354244 C1197,625.785149 1227.3387,584.023413 1233,570.918548 C1238.6613,557.813684 1211.4412,558.902828 1206,537.909764 C1200.5588,516.916701 1218,472.744423 1248,490.323101 C1278,507.901779 1242,541.336676 1242,556.127612 C1242,570.918548 1272.2084,541.25227 1260,586.348654 C1247.7916,631.445039 1225.06329,645.588824 1212,666.944102 C1198.93671,688.299379 1204.32577,700.44968 1185,708.955281 C1165.67423,717.460883 1143,717.460883 1125,691.376604 C1107,665.292324 1112.8963,619.637943 1101,597.925735 C1089.1037,576.213527 1058.90635,572.189445 1050,597.925735 C1041.09365,623.662026 1072.91079,660.080671 1074,681.948095 C1075.08921,703.815518 1050.92883,700.62996 1056,718.38379 C1061.07117,736.137621 1069.83697,746.66293 1101,748.391776 C1132.16303,750.120621 1167,705.528369 1176,723.959274 C1185,742.390179 1156.5,792.977641 1119,792.977641 C1081.5,792.977641 1017,778.399761 999,748.391776 C981,718.38379 954,645.938512 960,630.934519 C966,615.930527 988.082454,593.053398 993,570.918548 C997.917546,548.783699 984,555.914556 984,522.905772 C984,489.896988 1038,364.289562 1044,394.297548 C1050,424.305533 1068,433.307929 1095,421.304734 C1122,409.30154 1074,480.894592 1074,495.898585 C1074,510.902577 1125,522.905772 1125,513.903376 C1125,504.90098 1077,510.902577 1056,510.902577 C1035,510.902577 1022.396,493.965182 1005,495.898585 C987.604004,497.831988 976.383121,504.199522 978,513.903376 C979.616879,523.60723 987.914293,520.977396 1005,531.908167 C1022.08571,542.838939 1026,556.127612 1044,570.918548 C1062,585.709484 1071,607.780358 1074,637.36223 C1077,666.944102 1060,696.379798 1039,696.379798 C1018,696.379798 1033.0073,695.502714 999,681.948095 C964.992705,668.393475 916.184356,644.84478 843,681.948095 C794.21043,706.683637 742.21043,693.822215 687,643.363827" id="Path-4"></path>
        </g>
    </g>
</svg>